<?xml version="1.0" encoding="UTF-8" standalone="no"?>
<!DOCTYPE svg  PUBLIC '-//W3C//DTD SVG 1.1//EN'  'http://www.w3.org/Graphics/SVG/1.1/DTD/svg11.dtd'>
<svg xmlns="http://www.w3.org/2000/svg">
<defs>
<font id="Oxygen-Regular" horiz-adv-x="1626">
<font-face underline-position="0" font-weight="400" descent="-410" panose-1="2 0 5 3 0 0 0 0 0 0" units-per-em="2048" unicode-range="U+0020-25CA" bbox="-159 -502 2296 2035" x-height="1097" underline-thickness="0" font-family="Oxygen" ascent="1638" cap-height="1479"/>
<missing-glyph horiz-adv-x="2048"/>
<glyph glyph-name=".notdef" horiz-adv-x="2048"/>
<glyph glyph-name="glyph1" horiz-adv-x="0"/>
<glyph glyph-name="glyph2" horiz-adv-x="2048"/>
<glyph glyph-name="space" horiz-adv-x="511" unicode=" "/>
<glyph glyph-name="exclam" horiz-adv-x="586" unicode="!" d="M391 1496v-142l-56 -919h-79l-62 919v142h197zM160 120q0 53 35.5 92.5t97.5 39.5q63 0 98 -39t35 -93t-35 -93t-98 -39q-62 0 -97.5 39.5t-35.5 92.5z"/>
<glyph glyph-name="quotedbl" horiz-adv-x="710" unicode='&quot;' d="M160 1016l-21 494h151l-29 -494h-101zM446 1016l-21 494h151l-29 -494h-101z"/>
<glyph glyph-name="numbersign" horiz-adv-x="1134" unicode="#" d="M737 931h-235l-80 -395h236zM1032 1055l-14 -124h-147l-67 -395h147l-10 -126h-155l-86 -433h-151l84 433h-235l-80 -433h-129l73 433h-171l10 126h183l61 394h-177l9 125h193l83 407h153l-79 -407h234l71 407h128l-66 -407h138z"/>
<glyph glyph-name="dollar" horiz-adv-x="1241" unicode="$" d="M675 688v-557q291 15 291 295q0 96 -51.5 155.5t-187.5 93.5zM580 886v484q-304 -18 -304 -249q0 -85 55.5 -136.5t166.5 -78.5zM580 1693h95v-168q255 -8 414 -107l-50 -141q-61 34 -160.5 61.5t-203.5 32.5v-508l104 -25q180 -43 273 -137.5t93 -268.5 q0 -215 -125.5 -329t-344.5 -125v-173h-95v173q-160 5 -285.5 40.5t-200.5 81.5l52 144q202 -99 434 -112v580l-147 37q-337 85 -337 360q0 197 128 299.5t356 114.5v170z"/>
<glyph glyph-name="percent" horiz-adv-x="1877" unicode="%" d="M420 1378q-90 0 -140 -80t-50 -194q0 -115 49.5 -187.5t140.5 -72.5t141 74.5t50 185.5q0 115 -51 194.5t-140 79.5zM420 1489q145 0 232.5 -108.5t87.5 -276.5q0 -164 -88 -270t-232 -106q-145 0 -231 105.5t-86 270.5q0 167 86.5 276t230.5 109zM401 -4l795 1466h162 l-822 -1466h-135zM1431 640q-107 0 -166.5 -79t-59.5 -192q0 -115 59.5 -193t166.5 -78t166.5 79t59.5 192q0 115 -59.5 193t-166.5 78zM1431 754q169 0 261 -106.5t92 -278.5q0 -168 -93.5 -276t-259.5 -108q-168 0 -260 107.5t-92 276.5t93 277t259 108z"/>
<glyph glyph-name="ampersand" horiz-adv-x="1477" unicode="&amp;" d="M660 1345q-93 0 -149 -47.5t-56 -132.5q0 -68 36.5 -124.5t113.5 -130.5q61 30 98.5 52t77.5 54.5t58.5 70.5t18.5 84q0 83 -57 128.5t-141 45.5zM544 726q-126 -64 -194.5 -140t-68.5 -180q0 -129 92 -201.5t256 -72.5q196 0 356 127q-74 80 -220.5 234t-220.5 233z M441 839q-93 101 -133 169t-40 157q0 149 105.5 236.5t283.5 87.5q105 0 191.5 -32.5t142 -104t55.5 -170.5q0 -64 -25.5 -120.5t-74 -102.5t-106 -83t-133.5 -72l401 -429q80 84 142 224l121 -92q-62 -136 -159 -250l181 -216q-74 -28 -157 -52l-136 154 q-206 -166 -480 -166q-253 0 -384.5 110.5t-131.5 307.5q0 153 86.5 257t250.5 187z"/>
<glyph glyph-name="quotesingle" horiz-adv-x="423" unicode="&apos;" d="M283 1486l-20 -511h-115l-21 511h156z"/>
<glyph glyph-name="parenleft" horiz-adv-x="609" unicode="(" d="M103 598q0 490 273 888h155q-258 -402 -258 -884q0 -226 68 -456t190 -417h-153q-129 179 -202 403.5t-73 465.5z"/>
<glyph glyph-name="parenright" horiz-adv-x="609" unicode=")" d="M506 598q0 -241 -73 -465t-203 -404h-152q122 187 190 417t68 456q0 480 -259 884h155q274 -404 274 -888z"/>
<glyph glyph-name="asterisk" horiz-adv-x="1105" unicode="*" d="M643 1522l-36 -411l359 151l50 -171l-367 -83q11 -15 107.5 -142t144.5 -191q-26 -16 -77 -47t-77 -47l-200 362l-189 -362l-156 94l248 333l-363 83l50 171l357 -151l-37 411h186z"/>
<glyph glyph-name="plus" horiz-adv-x="1126" unicode="+" d="M637 718h390v-136h-391v-429h-137v429h-397v136h398v424h137v-424z"/>
<glyph glyph-name="comma" horiz-adv-x="505" unicode="," d="M109 -278q3 29 17.5 153.5t22.5 209.5t12 149h197v-44q-49 -198 -144 -468h-105z"/>
<glyph glyph-name="hyphen" horiz-adv-x="672" unicode="-" d="M86 497v147h500v-147h-500z"/>
<glyph glyph-name="period" horiz-adv-x="494" unicode="." d="M261 -12q-62 0 -97.5 39.5t-35.5 92.5q0 54 35 93t98 39t98 -39t35 -93t-35 -93t-98 -39z"/>
<glyph glyph-name="slash" horiz-adv-x="952" unicode="/" d="M194 -218h-144l676 1684h146z"/>
<glyph glyph-name="zero" horiz-adv-x="1241" unicode="0" d="M622 1373q-102 0 -175 -80.5t-109.5 -218t-36.5 -317.5q0 -183 36.5 -323.5t109.5 -222.5t175 -82t175 82t109.5 222.5t36.5 323.5q0 180 -36.5 317.5t-109.5 218t-175 80.5zM622 -23q-133 0 -233 58.5t-160.5 164.5t-90 244t-29.5 307q0 139 19.5 257t60.5 214 t101.5 163t144.5 103.5t187 36.5q128 0 226.5 -56t160 -159.5t92.5 -244t31 -314.5q0 -169 -29 -307t-89 -244t-159.5 -164.5t-232.5 -58.5z"/>
<glyph glyph-name="one" horiz-adv-x="626" unicode="1" d="M302 1496h159v-1496h-177v1311q-101 -66 -247 -113v167q16 7 65 28t73.5 32t61.5 31t65 40z"/>
<glyph glyph-name="two" horiz-adv-x="1116" unicode="2" d="M113 0l-23 164l517 574q52 58 100.5 150t70.5 156l23 63q0 124 -69 192.5t-196 68.5q-212 0 -334 -123l-58 150q138 130 404 130q204 0 325 -110.5t121 -295.5q-4 -14 -12 -37.5t-34.5 -91.5t-55.5 -129t-73.5 -134t-90.5 -122l-422 -451h693l-11 -154h-875z"/>
<glyph glyph-name="three" horiz-adv-x="1103" unicode="3" d="M496 -23q-134 0 -238.5 35t-152.5 81l56 147q141 -111 336 -111q150 0 238.5 74.5t88.5 208.5q0 73 -22.5 127.5t-60 88t-96 54t-120 29t-142.5 10.5q-10 0 -30 0.5t-30 0.5v149h50q70 1 123.5 7.5t107 23.5t88.5 45t57 75t22 111q0 240 -275 240q-99 0 -186 -29 t-149 -78l-56 146q149 113 429 113q113 0 209 -41.5t158 -127t62 -200.5q0 -140 -69 -230t-194 -129q140 -30 219.5 -131t79.5 -256q0 -197 -141 -315t-362 -118z"/>
<glyph glyph-name="four" horiz-adv-x="1211" unicode="4" d="M784 1269l-500 -753h500v753zM1122 371h-170v-371h-168v371h-676v153l657 972h187v-980h184z"/>
<glyph glyph-name="five" horiz-adv-x="1177" unicode="5" d="M1004 1496l-14 -164h-611q-10 -291 -15 -471q113 72 245 72q111 0 198.5 -35.5t143 -97.5t84.5 -144.5t29 -178.5q0 -227 -145.5 -363.5t-395.5 -136.5q-251 0 -402 137l65 141q148 -116 343 -116q164 0 259 93t95 243q0 134 -80 217.5t-228 83.5t-238 -99l-139 19 l39 800h767z"/>
<glyph glyph-name="six" horiz-adv-x="1199" unicode="6" d="M292 453q0 -89 33.5 -161t105 -117.5t170.5 -45.5q148 0 232.5 91t84.5 226q0 142 -84.5 233.5t-232.5 91.5q-157 0 -233 -89t-76 -229zM637 921q126 0 233 -59.5t172 -169t65 -243.5q0 -204 -137.5 -338t-362.5 -134q-117 0 -213.5 39.5t-159 107t-97 157t-34.5 191.5 q0 163 59.5 291.5t215.5 325.5q38 48 120 148t146 176l63 76h231l-526 -628q113 60 225 60z"/>
<glyph glyph-name="seven" horiz-adv-x="1052" unicode="7" d="M261 0l514 1341h-675l11 155h867v-136l-535 -1360h-182z"/>
<glyph glyph-name="eight" horiz-adv-x="1182" unicode="8" d="M594 1373q-118 0 -200.5 -59t-82.5 -162q0 -236 283 -299q279 63 279 299q0 103 -81 162t-198 59zM594 703q-143 -33 -229 -110.5t-86 -195.5q0 -123 89 -195.5t226 -72.5t223.5 72.5t86.5 195.5q0 119 -84 196.5t-226 109.5zM594 -23q-136 0 -245.5 45.5t-177.5 139.5 t-68 223q0 143 82 249t229 154q-280 99 -280 360q0 177 128 277t332 100q203 0 329 -100t126 -277q0 -132 -68 -222t-190 -138q135 -48 212 -154t77 -249q0 -192 -138.5 -300t-347.5 -108z"/>
<glyph glyph-name="nine" horiz-adv-x="1165" unicode="9" d="M901 1061q0 137 -77.5 224.5t-225.5 87.5q-149 0 -236 -91.5t-87 -225.5q0 -140 84 -224t233 -84q158 0 233.5 87t75.5 226zM556 598q-127 0 -233.5 55.5t-171.5 160.5t-65 239q0 204 140 338t366 134q117 0 212.5 -37.5t157 -103t95 -153t33.5 -189.5q0 -143 -49 -259 t-169 -279q-43 -57 -143.5 -183t-179.5 -223l-79 -98h-220l531 658q-113 -60 -225 -60z"/>
<glyph glyph-name="colon" horiz-adv-x="494" unicode=":" d="M146 -25v233h206v-233h-206zM146 893v231h206v-231h-206z"/>
<glyph glyph-name="semicolon" horiz-adv-x="518" unicode=";" d="M376 197l-125 -507h-113l56 507h182zM174 893v231h206v-231h-206z"/>
<glyph glyph-name="less" horiz-adv-x="1175" unicode="&lt;" d="M1061 146l-958 459v97l960 493v-158l-775 -379l773 -354v-158z"/>
<glyph glyph-name="equal" horiz-adv-x="1228" unicode="=" d="M131 799v144h966v-144h-966zM132 377v142h965v-142h-965z"/>
<glyph glyph-name="greater" horiz-adv-x="1176" unicode="&gt;" d="M115 311l774 347l-772 386v156l958 -499v-97l-960 -452v159z"/>
<glyph glyph-name="question" horiz-adv-x="865" unicode="?" d="M242 120q0 53 35.5 92.5t97.5 39.5q63 0 98 -39t35 -93t-35 -93t-98 -39q-62 0 -97.5 39.5t-35.5 92.5zM404 435h-87q0 64 29.5 147t71.5 162.5t83.5 157.5t71 154t29.5 130q-1 95 -61 141t-164 46q-129 0 -259 -81l-45 135q123 97 331 97q162 0 261.5 -85.5t99.5 -238.5 q0 -77 -22.5 -150t-62.5 -142.5t-83.5 -135t-98 -157.5t-94.5 -180z"/>
<glyph glyph-name="at" horiz-adv-x="1814" unicode="@" d="M680 609q0 -99 40.5 -156t120.5 -57q106 0 161 87.5t75 246.5q9 71 26 228q-57 20 -146 20q-92 0 -155.5 -51t-92.5 -132.5t-29 -185.5zM1703 784q0 -117 -35.5 -218t-94 -167t-132.5 -103t-151 -37q-81 0 -135 45t-65 126q-45 -64 -113 -113t-155 -49q-130 0 -207 93.5 t-77 254.5q0 207 111.5 345t306.5 138q143 0 304 -55q-7 -50 -21.5 -144.5t-22 -148.5t-14.5 -120t-7 -108q0 -142 111 -142q101 0 183.5 120.5t82.5 289.5q0 265 -175.5 421t-454.5 156q-201 0 -360.5 -93t-248 -257t-88.5 -369q0 -306 174.5 -480t466.5 -174 q249 0 446 113l35 -111q-190 -128 -482 -128q-350 0 -562 209t-212 567q0 178 62.5 335t172 269.5t266.5 177.5t339 65q214 0 384 -86t269 -248t99 -374z"/>
<glyph glyph-name="A" horiz-adv-x="1302" unicode="A" d="M1121 0l-173 469h-590l-179 -469h-176l568 1482h177l551 -1482h-178zM892 614q-211 613 -233 689l-243 -689h476z"/>
<glyph glyph-name="B" horiz-adv-x="1286" unicode="B" d="M174 1479h424q285 0 422.5 -87t137.5 -277q0 -28 -3.5 -55.5t-18 -70.5t-39.5 -78.5t-73.5 -71t-113.5 -56.5q149 -28 226 -126t77 -236q0 -201 -131.5 -311t-391.5 -110h-516v1479zM347 843h317q155 0 234 54t79 192q0 139 -94.5 191.5t-293.5 52.5h-242v-490zM347 704 v-562h309q188 0 282 69.5t94 216.5q0 153 -101.5 214.5t-316.5 61.5h-267z"/>
<glyph glyph-name="C" horiz-adv-x="1290" unicode="C" d="M823 1352q-167 0 -287.5 -81t-179.5 -218t-59 -315q0 -133 32 -242.5t96 -192t166.5 -128t235.5 -45.5q171 0 354 89l29 -147q-149 -94 -403 -94q-167 0 -299.5 55.5t-219 157t-131.5 242t-45 312.5q0 166 49 306t138.5 240.5t223.5 156.5t298 56q249 0 420 -110 l-68 -141q-164 99 -350 99z"/>
<glyph glyph-name="D" horiz-adv-x="1502" unicode="D" d="M1390 741q0 -361 -205 -551t-572 -190h-439v1479h410q185 0 331 -43.5t253.5 -132t164.5 -231t57 -331.5zM1205 736q0 310 -160 451t-466 141h-232v-1177h261q292 0 444.5 147.5t152.5 437.5z"/>
<glyph glyph-name="E" horiz-adv-x="1143" unicode="E" d="M174 0v1479h848l-7 -153h-668v-484h635v-151h-635v-538h690l-8 -153h-855z"/>
<glyph glyph-name="F" horiz-adv-x="1041" unicode="F" d="M347 0h-173v1479h821l-7 -153h-641v-519h611v-147h-611v-660z"/>
<glyph glyph-name="G" horiz-adv-x="1461" unicode="G" d="M819 -22q-169 0 -303.5 56.5t-222 158t-134 240.5t-46.5 305q0 224 85 396t253 271t398 99q255 0 448 -116l-66 -143q-186 107 -380 107q-135 0 -241.5 -46.5t-174 -129t-103 -194t-35.5 -244.5q0 -282 140.5 -445.5t414.5 -163.5q156 0 317 63v422h-349l6 151h505v-676 q-126 -60 -243.5 -85.5t-268.5 -25.5z"/>
<glyph glyph-name="H" horiz-adv-x="1488" unicode="H" d="M1314 0h-173v692h-794v-692h-173v1479h173v-635h794v635h173v-1479z"/>
<glyph glyph-name="I" horiz-adv-x="540" unicode="I" d="M355 0h-173v1479h173v-1479z"/>
<glyph glyph-name="J" horiz-adv-x="550" unicode="J" d="M226 181v1315h177v-1255q0 -73 -3 -123t-12 -101.5t-26.5 -84.5t-45.5 -63.5t-69.5 -47t-98.5 -26t-132 -9.5h-35l-21 142h74q53 0 89.5 13t56.5 32.5t30.5 55.5t13 67.5t2.5 84.5z"/>
<glyph glyph-name="K" horiz-adv-x="1242" unicode="K" d="M1260 0h-212l-566 706l-135 -119v-587h-174v1479h174v-726l650 726h217l-600 -666z"/>
<glyph glyph-name="L" horiz-adv-x="1021" unicode="L" d="M174 0v1479h174v-1325h651l-6 -154h-819z"/>
<glyph glyph-name="M" horiz-adv-x="1817" unicode="M" d="M822 91l-454 1056l-38 101l7 -362v-886h-162v1479h224l515 -1178l510 1178h218v-1479h-168v890l7 354l-37 -101l-453 -1052h-169z"/>
<glyph glyph-name="N" horiz-adv-x="1516" unicode="N" d="M1342 0h-196l-768 1164l-50 69q8 -210 8 -375v-858h-162v1479h193l770 -1164l51 -69q-7 319 -7 369v864h161v-1479z"/>
<glyph glyph-name="O" d="M1514 739q0 -169 -46.5 -309t-134 -240.5t-220.5 -156t-299 -55.5q-224 0 -383.5 95.5t-239 266t-79.5 400.5q0 355 185 560t518 205q328 0 513.5 -206.5t185.5 -559.5zM296 739q0 -285 131 -447.5t387 -162.5t385.5 162t129.5 448q0 292 -130.5 453t-383.5 161 t-386 -161t-133 -453z" unicode="O"/>
<glyph glyph-name="P" horiz-adv-x="1159" unicode="P" d="M584 778q98 0 168 19t107.5 47t59 73t26.5 82.5t5 90.5q0 127 -85.5 187t-232.5 60h-309v-557q193 -2 261 -2zM323 0h-177v1496h482q110 0 199 -23t158 -70t107 -126t38 -184q0 -87 -16 -155.5t-55 -128.5t-102 -99.5t-161.5 -62t-228.5 -22.5q-103 0 -244 13v-638z"/>
<glyph glyph-name="Q" d="M814 129q256 0 385.5 162t129.5 448q0 292 -130.5 453t-383.5 161t-386 -161t-133 -453q0 -285 131 -447.5t387 -162.5zM1267 -470q-48 48 -159 195.5t-166 261.5q-62 -9 -128 -9q-224 0 -383.5 95.5t-239 266t-79.5 400.5q0 355 185 560t518 205q328 0 513.5 -206.5 t185.5 -559.5q0 -257 -105 -442.5t-301 -265.5q16 -28 44 -73.5t101.5 -148t131.5 -159.5z" unicode="Q"/>
<glyph glyph-name="R" horiz-adv-x="1339" unicode="R" d="M1272 0h-200l-204 464q-83 187 -106 225q-73 -5 -173 -5l-265 8v-692h-177v1496h473q82 0 145 -4t125.5 -14.5t108.5 -29t86 -48t64.5 -70.5t38.5 -97.5t14 -127.5q0 -140 -73.5 -241t-208.5 -140q0 -2 20 -36t47.5 -83.5t42.5 -82.5zM324 1341v-500q41 0 169.5 -2 t198.5 -2q191 0 266 63.5t75 201.5q0 121 -72 180t-241 59h-396z"/>
<glyph glyph-name="S" horiz-adv-x="1227" unicode="S" d="M146 244q231 -114 495 -114q325 0 325 296q0 96 -51.5 155.5t-187.5 93.5l-294 74q-337 85 -337 360q0 211 145 313.5t401 102.5q134 0 251 -29t196 -78l-50 -141q-67 37 -177.5 66t-223.5 29q-362 0 -362 -251q0 -85 55.5 -136.5t166.5 -78.5l281 -68 q180 -43 273 -137.5t93 -268.5q0 -226 -138.5 -340.5t-376.5 -114.5q-178 0 -316.5 36.5t-219.5 86.5z"/>
<glyph glyph-name="T" horiz-adv-x="1099" unicode="T" d="M636 0h-174v1326h-455v153h1084v-153h-455v-1326z"/>
<glyph glyph-name="U" horiz-adv-x="1438" unicode="U" d="M1277 1479v-960q0 -255 -139.5 -398t-424.5 -143t-421 143t-136 400v958h174v-961q0 -201 95 -296t294 -95q194 0 289.5 96t95.5 296v960h173z"/>
<glyph glyph-name="V" horiz-adv-x="1242" unicode="V" d="M1062 1479h185l-537 -1479h-180l-535 1479h185l329 -938q64 -183 111 -345q15 75 112 348q156 447 330 935z"/>
<glyph glyph-name="W" horiz-adv-x="2013" unicode="W" d="M446 0l-446 1479h181l366 -1273l366 1246h195l355 -1247l369 1274h181l-452 -1479h-189l-360 1243l-378 -1243h-188z"/>
<glyph glyph-name="X" horiz-adv-x="1240" unicode="X" d="M1231 0h-199l-412 661l-423 -661h-188l506 772l-473 707h201l383 -592l398 592h185l-476 -704z"/>
<glyph glyph-name="Y" horiz-adv-x="1194" unicode="Y" d="M591 754l416 725h188l-522 -889v-590h-175v586l-499 893h187z"/>
<glyph glyph-name="Z" horiz-adv-x="1184" unicode="Z" d="M86 0v136l804 1189h-775v154h996v-129l-809 -1196h816l-6 -154h-1026z"/>
<glyph glyph-name="bracketleft" horiz-adv-x="676" unicode="[" d="M596 -293h-453v1776h453v-132h-280v-1512h280v-132z"/>
<glyph glyph-name="backslash" horiz-adv-x="843" unicode="\" d="M208 1464l599 -1524h-156l-599 1524h156z"/>
<glyph glyph-name="bracketright" horiz-adv-x="676" unicode="]" d="M80 -161h280v1512h-280v132h453v-1776h-453v132z"/>
<glyph glyph-name="asciicircum" horiz-adv-x="1157" unicode="^" d="M69 589l445 927h102l470 -927h-143l-378 746l-351 -746h-145z"/>
<glyph glyph-name="underscore" horiz-adv-x="1085" unicode="_" d="M1012 -304h-939v134h939v-134z"/>
<glyph glyph-name="grave" horiz-adv-x="643" unicode="`" d="M408 1251l-323 387h250l185 -387h-112z"/>
<glyph glyph-name="a" horiz-adv-x="1098" unicode="a" d="M823 0q-15 64 -29 138q-91 -91 -171 -126t-188 -35q-154 0 -247.5 80.5t-93.5 231.5q0 168 127.5 249t367.5 101q33 3 99.5 8.5t99.5 8.5v97q0 116 -54 172t-170 56q-162 0 -327 -80q-5 12 -26 69.5t-22 59.5q73 41 173.5 65.5t204.5 24.5q205 0 295.5 -89.5t90.5 -304.5 v-726h-130zM460 112q119 0 209.5 65.5t116.5 176.5v185q-5 0 -60.5 -5t-72.5 -6q-217 -19 -302.5 -71t-85.5 -167q0 -88 52 -133t143 -45z"/>
<glyph glyph-name="b" horiz-adv-x="1215" unicode="b" d="M659 1120q146 0 252 -74t159 -201t53 -291q0 -170 -52.5 -299t-159 -203.5t-254.5 -74.5q-109 0 -199 47t-150 128l-17 -152h-143v1523l167 10v-363q0 -134 -4 -230q58 83 150.5 131.5t197.5 48.5zM642 981q-159 0 -243.5 -109.5t-84.5 -321.5q0 -434 327 -434 q81 0 142.5 33.5t97 94t53 136.5t17.5 169q0 126 -29.5 220t-100.5 153t-179 59z"/>
<glyph glyph-name="c" horiz-adv-x="968" unicode="c" d="M607 -23q-242 0 -378.5 157t-136.5 411q1 256 139.5 415.5t379.5 159.5q85 0 164.5 -21t125.5 -55l-46 -130q-117 63 -247 63q-159 0 -251.5 -116t-92.5 -317q0 -196 91.5 -310.5t253.5 -114.5q129 0 264 70l21 -133q-109 -79 -287 -79z"/>
<glyph glyph-name="d" horiz-adv-x="1211" unicode="d" d="M900 159q-54 -83 -144 -132t-201 -49q-217 0 -340 154.5t-123 420.5q0 254 125 410.5t335 156.5q109 0 205.5 -47.5t144.5 -127.5l-3 95v483l165 10v-1533h-142zM571 121q165 0 245.5 106t80.5 303q0 222 -77.5 334.5t-250.5 112.5q-77 0 -136 -33t-95 -92t-54.5 -135.5 t-18.5 -167.5q0 -128 31.5 -222t101.5 -150t173 -56z"/>
<glyph glyph-name="e" horiz-adv-x="1108" unicode="e" d="M607 -23q-239 0 -376.5 152t-137.5 416q0 255 133 413.5t350 161.5q204 0 323.5 -139.5t119.5 -372.5q0 -12 -0.5 -44t-0.5 -46h-753q3 -187 96.5 -291.5t251.5 -104.5q174 0 349 92l26 -135q-167 -102 -381 -102zM574 982q-128 0 -209 -90.5t-95 -247.5h579 q0 163 -73.5 250.5t-201.5 87.5z"/>
<glyph glyph-name="f" horiz-adv-x="669" unicode="f" d="M560 1416q-104 0 -142.5 -60t-38.5 -208v-51h264v-124h-264v-973h-167v973h-178l14 110l164 14v49q2 212 79.5 307.5t250.5 95.5q67 0 164 -15l-11 -131q-89 13 -135 13z"/>
<glyph glyph-name="g" horiz-adv-x="1187" unicode="g" d="M312 -502l-15 151h204q85 0 148 12t105 39.5t68 61t39.5 87t18 106t4.5 128.5v97q-60 -86 -139 -132.5t-201 -46.5q-94 0 -173.5 32.5t-134 86.5t-93 125t-56 147t-17.5 153q0 120 29.5 222t87.5 182t152.5 125.5t216.5 45.5q108 0 188.5 -41.5t144.5 -127.5v146h163 v-1018q0 -70 -3.5 -122.5t-17 -116.5t-36.5 -110t-64.5 -92.5t-99 -75t-142.5 -46.5t-192 -18h-185zM569 143q85 0 149 30t100 83t53.5 118t17.5 142v81q0 80 -18 147.5t-55.5 121t-100 83.5t-145.5 30q-69 0 -125.5 -26t-93 -68.5t-62 -99t-36.5 -114.5t-11 -117 q0 -58 12 -115t38 -111t63 -94.5t92.5 -65.5t121.5 -25z"/>
<glyph glyph-name="h" horiz-adv-x="1112" unicode="h" d="M882 0v663q0 165 -52.5 240t-183.5 75q-126 0 -212.5 -63t-112.5 -163q-9 -75 -9 -167v-585h-167v1523l167 10v-446q0 -57 -4 -141q141 174 374 174q367 0 367 -431v-689h-167z"/>
<glyph glyph-name="i" horiz-adv-x="511" unicode="i" d="M340 1496v-198h-168v198h168zM340 1097v-1097h-168v1097h168z"/>
<glyph glyph-name="j" horiz-adv-x="445" unicode="j" d="M330 1496v-198h-168v198h168zM330 1097v-1236q0 -106 -13.5 -171t-51 -110.5t-101.5 -63.5t-167 -18h-52l-22 151h52q39 0 67.5 4.5t49 11.5t33.5 23t20.5 30.5t11 43.5t4.5 52t1 65v1218h168z"/>
<glyph glyph-name="k" horiz-adv-x="1041" unicode="k" d="M145 0v1523l166 10v-797v-140q6 6 18 20t19 21q87 95 450 460h212l-456 -462l488 -635h-208l-401 540l-122 -105v-435h-166z"/>
<glyph glyph-name="l" horiz-adv-x="569" unicode="l" d="M438 -20q-160 0 -226.5 86t-66.5 299v1158l166 10v-1102q0 -68 1.5 -109t7.5 -80.5t16 -59.5t29 -36.5t45.5 -22t65.5 -5.5q32 0 126 12l9 -133q-103 -17 -173 -17z"/>
<glyph glyph-name="m" horiz-adv-x="1773" unicode="m" d="M1536 0v571q0 80 -3.5 134t-16 110t-35 88.5t-62.5 53t-96 20.5q-110 0 -187.5 -59t-110.5 -166q-9 -72 -9 -154v-598h-167v589q0 74 -5 128.5t-19 106t-37.5 83.5t-62.5 51t-93 19q-120 0 -201.5 -61t-109.5 -162q-9 -77 -9 -167v-587h-167q-2 1029 -2 1097h140l21 -157 q50 76 142 128t209 52q61 0 112.5 -12.5t86 -31.5t61.5 -45.5t42 -52t25 -53.5q120 195 367 195q183 0 268.5 -104.5t85.5 -309.5v-706h-167z"/>
<glyph glyph-name="n" horiz-adv-x="1184" unicode="n" d="M143 0v1097h140l21 -157q65 81 162.5 130.5t210.5 49.5q190 0 281 -106.5t91 -327.5v-686h-167q0 660 -1 707q-4 140 -56.5 205t-175.5 65q-129 0 -215 -62t-112 -161q-10 -67 -10 -154v-600h-169z"/>
<glyph glyph-name="o" horiz-adv-x="1201" unicode="o" d="M1108 549q0 -255 -136 -413.5t-376 -158.5q-231 0 -367.5 160t-136.5 411q0 256 137 414t376 158q235 0 369 -158.5t134 -412.5zM265 546q0 -195 86.5 -312.5t252.5 -117.5q164 0 247.5 117t83.5 315q0 201 -82.5 316.5t-251.5 115.5q-164 0 -250 -118t-86 -316z"/>
<glyph glyph-name="p" horiz-adv-x="1201" unicode="p" d="M629 118q76 0 136 34.5t97 94.5t56 136.5t19 165.5q0 188 -79 308.5t-231 120.5q-318 0 -318 -411q0 -223 74.5 -336t245.5 -113zM143 -476v1573h147l16 -149q144 172 346 172q150 0 254 -75t153.5 -203t49.5 -299q0 -164 -54 -291.5t-158.5 -201t-244.5 -73.5 q-106 0 -199 47.5t-149 125.5q6 -108 6 -210v-405z"/>
<glyph glyph-name="q" horiz-adv-x="1211" unicode="q" d="M574 121q166 0 244.5 104t80.5 304q0 221 -77 334t-249 113q-104 0 -174.5 -59.5t-100.5 -153t-30 -216.5q0 -93 17.5 -168.5t53.5 -134t95.5 -91t139.5 -32.5zM552 -23q-143 0 -247.5 74t-156.5 200t-52 290q0 170 52 299.5t158 204.5t254 75q205 0 345 -178l12 155h148 v-1563l-167 -10v487q0 73 5 148q-56 -84 -147 -133t-204 -49z"/>
<glyph glyph-name="r" horiz-adv-x="746" unicode="r" d="M635 1107q45 0 82 -6l-6 -154q-46 8 -80 8q-140 0 -227.5 -97.5t-87.5 -241.5v-616h-167q-1 1010 -1 1097h139l16 -197q57 93 145 150t187 57z"/>
<glyph glyph-name="s" horiz-adv-x="953" unicode="s" d="M470 -23q-112 0 -206.5 24t-153.5 62l21 141q167 -89 328 -89q244 0 251 172q0 73 -52 115t-204 94l-83 29q-144 48 -205.5 119t-62.5 177q0 129 103.5 214t283.5 85q186 0 339 -72l-49 -128q-155 64 -290 64q-105 0 -164.5 -41.5t-59.5 -116.5q0 -64 43 -98t172 -78 q33 -12 83 -28q166 -54 235 -127.5t69 -198.5q-2 -152 -109 -235.5t-289 -83.5z"/>
<glyph glyph-name="t" horiz-adv-x="710" unicode="t" d="M493 -20q-162 0 -230 79t-72 255v659h-163l7 110l155 14l57 251l110 4v-255h305v-124h-305v-629q0 -125 38 -176t130 -51q33 0 143 16l7 -132q-119 -21 -182 -21z"/>
<glyph glyph-name="u" horiz-adv-x="1100" unicode="u" d="M105 366v731h168v-733q0 -72 20.5 -122t59 -77.5t87 -39.5t111.5 -12q130 0 202.5 57t72.5 194v733h168v-731q0 -84 -24 -151t-64.5 -111.5t-97.5 -73.5t-120.5 -42t-136.5 -13q-72 0 -136 13t-121.5 42.5t-99 74t-65.5 111.5t-24 150z"/>
<glyph glyph-name="v" horiz-adv-x="1031" unicode="v" d="M424 0l-425 1097h179l242 -652l100 -278q34 107 94 276q76 213 236 654h178l-422 -1097h-182z"/>
<glyph glyph-name="w" horiz-adv-x="1606" unicode="w" d="M1090 0q-231 738 -286 919q-31 -110 -71 -238t-70 -220t-78 -238t-73 -223h-180l-313 1097h173l235 -898q49 160 288 898h189q238 -754 280 -895l232 895h171l-316 -1097h-181z"/>
<glyph glyph-name="x" horiz-adv-x="1057" unicode="x" d="M433 558l-387 539h191l293 -418l294 418h191l-388 -541l398 -556h-185l-309 441l-309 -441h-191z"/>
<glyph glyph-name="y" horiz-adv-x="1022" unicode="y" d="M3 1097h177l346 -913l308 913h177q-444 -1222 -459 -1260q-69 -173 -167 -253.5t-258 -80.5q-48 0 -101 8l-10 142q56 -4 84 -4q113 0 171.5 41.5t104.5 155.5q41 105 61 162z"/>
<glyph glyph-name="z" horiz-adv-x="912" unicode="z" d="M849 0h-766v126l561 839h-546v132h733v-132l-560 -833h578v-132z"/>
<glyph glyph-name="braceleft" horiz-adv-x="733" unicode="{" d="M454 84q0 -128 39 -177t148 -50v-138q-187 1 -269.5 84t-82.5 259v207q0 71 -7.5 118t-29.5 88.5t-65.5 61t-111.5 19.5v145q32 0 57.5 3t46 10.5t36 14.5t27 21t19.5 25t13.5 32t8.5 36.5t4 43t1.5 47t0.5 53.5v243q0 155 89.5 232t262.5 77v-138q-109 -1 -148 -51 t-39 -177v-265q0 -91 -44.5 -157.5t-140.5 -124.5q95 -30 140 -105t45 -172v-265z"/>
<glyph glyph-name="bar" horiz-adv-x="799" unicode="|" d="M327 1579h145v-1979h-145v1979z"/>
<glyph glyph-name="braceright" horiz-adv-x="738" unicode="}" d="M466 632q-95 30 -139.5 104.5t-44.5 171.5v265q0 126 -39.5 176.5t-147.5 51.5v138q184 0 268 -84t84 -260v-208q0 -58 4 -96.5t16.5 -77t35.5 -61t62.5 -36.5t96.5 -15v-145q-55 0 -94 -14t-62.5 -37t-36.5 -61.5t-17.5 -78.5t-4.5 -96v-242q0 -306 -352 -308v138 q108 1 147.5 50t39.5 177v265q0 95 39 153.5t145 129.5z"/>
<glyph glyph-name="asciitilde" horiz-adv-x="1255" unicode="~" d="M387 663q-64 0 -121 -45t-94 -115l-52 105q38 89 106.5 143.5t164.5 54.5q58 0 112 -15.5t135 -51.5q9 -4 34.5 -15t35 -15.5t30.5 -13t31.5 -12.5t27.5 -9.5t28 -8t24 -4.5t24 -2q59 0 115 44t93 112l56 -96q-39 -95 -107 -148.5t-162 -53.5q-89 0 -235 66 q-65 30 -96 43t-73.5 25t-76.5 12z"/>
<glyph glyph-name="uni00A0" horiz-adv-x="511" unicode=" "/>
<glyph glyph-name="exclamdown" horiz-adv-x="586" unicode="¡" d="M195 -281v142l56 919h79l62 -919v-142h-197zM426 1095q0 -53 -35.5 -92.5t-97.5 -39.5q-63 0 -98 39t-35 93t35 93t98 39q62 0 97.5 -39.5t35.5 -92.5z"/>
<glyph glyph-name="cent" horiz-adv-x="1102" unicode="¢" d="M547 310v864q-134 -20 -220 -142t-86 -295q0 -171 83.5 -288t222.5 -139zM547 1496h95v-182q167 -11 254 -93l-42 -119q-95 64 -212 74v-869q113 11 213 81l42 -120q-94 -86 -255 -98v-169h-95v169q-149 13 -259 95t-164 206t-54 271q1 108 34 207t93 177t151 128.5 t199 59.5v182z"/>
<glyph glyph-name="sterling" horiz-adv-x="1132" unicode="£" d="M696 1503q203 0 357 -130l-78 -120q-137 104 -278 104q-139 0 -197.5 -93.5t-58.5 -270.5v-178h410v-134h-410v-162q0 -137 -24.5 -223.5t-97.5 -142.5q82 5 94 5h655v-158h-972l-11 139q99 37 141.5 112t42.5 198v232h-186v134h186v96q0 70 5 130t17.5 121.5t33 110.5 t53.5 93t77 73.5t105 46.5t136 17z"/>
<glyph glyph-name="currency" horiz-adv-x="1151" unicode="¤" d="M158 732q0 135 83 249l-186 179l74 72l184 -175q113 93 263 93q148 0 262 -94l187 176l70 -74l-184 -177q83 -117 83 -249q0 -140 -82 -250l182 -176l-69 -74l-187 176q-115 -93 -262 -93q-151 0 -263 93l-184 -175l-73 72l185 177q-83 113 -83 250zM267 732 q0 -128 90.5 -218.5t218.5 -90.5q129 0 219.5 90.5t90.5 218.5t-91 219t-219 91t-218.5 -91t-90.5 -219z"/>
<glyph glyph-name="yen" horiz-adv-x="1135" unicode="¥" d="M567 805l369 674h172l-423 -750h306v-124h-346v-182h347v-124h-347v-299h-158v299h-353v124h353v182h-352v124h304l-414 750h178z"/>
<glyph glyph-name="brokenbar" horiz-adv-x="788" unicode="¦" d="M322 1579h146v-707h-146v707zM322 310h146v-709h-146v709z"/>
<glyph glyph-name="section" horiz-adv-x="1017" unicode="§" d="M292 813q0 -70 53 -115t182 -96l57 -24q143 87 143 190q0 34 -15.5 63.5t-37 49.5t-64.5 42t-77 36t-96 36q-64 -28 -104.5 -75t-40.5 -107zM141 797q0 87 45 154.5t121 107.5q-74 47 -110.5 105t-36.5 143q0 122 88 193t249 82q40 4 77 4q53 0 113.5 -10.5t148.5 -45.5 q-5 -25 -13.5 -72.5t-12.5 -72.5q-135 61 -264 61q-228 0 -228 -135q0 -62 53.5 -105t198.5 -101q160 -65 234.5 -137.5t74.5 -178.5q0 -86 -43.5 -157.5t-116.5 -117.5q149 -85 149 -236q0 -145 -115 -226t-307 -81q-186 0 -301 59v155q147 -76 303 -76q123 0 192 42.5 t69 114.5q0 24 -5 42.5t-21 35.5t-30.5 28.5t-49 28.5t-60 28t-79.5 33q-172 66 -247.5 140.5t-75.5 194.5z"/>
<glyph glyph-name="dieresis" horiz-adv-x="770" unicode="¨" d="M272 1254h-154v212h154v-212zM663 1254h-155v212h155v-212z"/>
<glyph glyph-name="copyright" horiz-adv-x="1841" unicode="©" d="M1191 459l39 -107q-55 -35 -143 -58.5t-178 -23.5q-206 0 -340.5 146t-134.5 369q0 225 134 370.5t351 145.5q179 0 308 -90l-60 -97q-45 32 -115 50t-142 18q-85 0 -151.5 -32t-107 -87t-61 -124.5t-20.5 -149.5q0 -179 91 -290.5t268 -111.5q68 0 143.5 21t118.5 51z M902 67q165 0 297 56t216 153.5t128.5 225.5t44.5 276t-45 276.5t-130 227t-218 155t-298 56.5q-157 0 -284.5 -56.5t-210.5 -154t-127.5 -225.5t-44.5 -274q0 -149 45 -278.5t128 -227t212 -154t287 -56.5zM1701 781q0 -157 -43.5 -290t-118.5 -227.5t-176.5 -160.5 t-218 -97.5t-242.5 -31.5q-119 0 -232 31.5t-213.5 98t-176 160t-119.5 227t-44 290.5q0 156 43.5 289t118 227t174.5 160t212.5 97.5t231.5 31.5q126 0 243 -32t219.5 -98t178 -160t119.5 -226.5t44 -288.5z"/>
<glyph glyph-name="ordfeminine" horiz-adv-x="807" unicode="ª" d="M350 826q-97 0 -159.5 61.5t-62.5 162.5q0 56 21.5 97t55 65.5t91 41t112.5 23.5t135 12v18q-2 90 -30 128t-100 38q-68 0 -117 -16.5t-98 -71.5l-61 78q97 127 282 127q106 0 173.5 -64t67.5 -196l-2 -348q0 -26 6 -135h-118l-3 79q-67 -100 -193 -100zM369 937 q84 0 127 65.5t47 165.5v27q-15 -2 -47.5 -4.5t-51.5 -4.5t-48.5 -6.5t-47.5 -10.5t-39.5 -17t-33.5 -24.5t-20 -34t-8 -45.5q0 -111 122 -111zM134 741h545v-106h-545v106z"/>
<glyph glyph-name="guillemotleft" horiz-adv-x="1000" unicode="«" d="M771 149q-41 55 -116.5 159.5t-130.5 181.5l-55 77l304 403l128 -35l-259 -374l256 -376zM390 149l-270 371l-20 47l293 403l143 -35l-274 -374l269 -376z"/>
<glyph glyph-name="logicalnot" horiz-adv-x="1225" unicode="¬" d="M1100 825v-565h-135v421h-856v144h991z"/>
<glyph glyph-name="uni00AD" horiz-adv-x="946" unicode="­" d="M108 236v150h735v-150h-735z"/>
<glyph glyph-name="registered" horiz-adv-x="1824" unicode="®" d="M914 716h-183v-415h-132v976h258q443 0 443 -270q0 -108 -61 -181.5t-199 -90.5q33 -26 65 -69.5t56 -86t71 -127t88 -151.5h-149l-125 224q-32 59 -48 86t-39 57.5t-45 47.5zM857 843q148 0 216 32.5t68 123.5q0 94 -63.5 122t-230.5 28h-116v-306h126zM902 67 q165 0 297 56t216 153.5t128.5 225.5t44.5 276t-45 276.5t-130 227t-218 155t-298 56.5q-157 0 -284.5 -56.5t-210.5 -154t-127.5 -225.5t-44.5 -274q0 -149 45 -278.5t128 -227t212 -154t287 -56.5zM1701 781q0 -157 -43.5 -290t-118.5 -227.5t-176.5 -160.5t-218 -97.5 t-242.5 -31.5q-119 0 -232 31.5t-213.5 98t-176 160t-119.5 227t-44 290.5q0 156 43.5 289t118 227t174.5 160t212.5 97.5t231.5 31.5q126 0 243 -32t219.5 -98t178 -160t119.5 -226.5t44 -288.5z"/>
<glyph glyph-name="macron" horiz-adv-x="1062" unicode="¯" d="M886 1625v-122h-710v122h710z"/>
<glyph glyph-name="degree" horiz-adv-x="846" unicode="°" d="M112 1205q0 130 91.5 222t219.5 92t220 -92t92 -222q0 -128 -91 -222t-221 -94q-128 0 -219.5 93t-91.5 223zM235 1205q0 -81 55.5 -138t133.5 -57t133.5 57t55.5 138t-55.5 137.5t-133.5 56.5q-77 0 -133 -56.5t-56 -137.5z"/>
<glyph glyph-name="plusminus" horiz-adv-x="1202" unicode="±" d="M668 790h418v-143h-416v-414h-137v414h-415v143h414v416h136v-416zM118 0v143h970v-143h-970z"/>
<glyph glyph-name="uni00B2" horiz-adv-x="763" unicode="²" d="M615 650h-481v119q75 85 104 117.5t85 99t78.5 98.5t52 78t40 79t10.5 62q0 55 -33 88t-91 33q-107 0 -163 -142l-74 85q30 87 94.5 135.5t149.5 48.5q100 0 165 -68t65 -178q0 -53 -17.5 -108t-42.5 -101.5t-71.5 -105.5t-85.5 -102t-103 -110h318v-128z"/>
<glyph glyph-name="uni00B3" horiz-adv-x="756" unicode="³" d="M352 1424q-82 0 -167 -85l-53 103q42 50 101 80.5t121 30.5q97 0 168 -68t71 -180q0 -131 -95 -193q115 -64 115 -213q0 -121 -76 -194.5t-187 -73.5q-131 0 -218 104l55 103q77 -85 159 -85q65 0 108.5 41.5t43.5 108.5q0 76 -48.5 109.5t-141.5 33.5h-48v128h44 q174 0 174 129q0 61 -34 91t-92 30z"/>
<glyph glyph-name="acute" horiz-adv-x="639" unicode="´" d="M567 1638l-325 -388h-114l186 388h253z"/>
<glyph glyph-name="paragraph" horiz-adv-x="1068" unicode="¶" d="M393 -158v1005q-107 2 -195.5 56t-136.5 136.5t-48 172.5q0 69 25.5 129.5t77 110.5t140 79.5t205.5 29.5h466v-131h-75v-1588h-115v1588h-219v-1588h-125z"/>
<glyph glyph-name="periodcentered" horiz-adv-x="468" unicode="·" d="M318 759v-198h-168v198h168z"/>
<glyph glyph-name="cedilla" horiz-adv-x="596" unicode="¸" d="M268 -410h-154l112 426h86z"/>
<glyph glyph-name="uni00B9" horiz-adv-x="601" unicode="¹" d="M122 1334v102q94 48 149 103l97 -1v-792h124v-96h-357v96h118v663q-48 -32 -131 -75z"/>
<glyph glyph-name="ordmasculine" horiz-adv-x="899" unicode="º" d="M451 1590q148 0 233 -109t85 -276q0 -164 -84.5 -271.5t-231.5 -107.5q-154 0 -238 107.5t-84 276.5q0 164 86 272t234 108zM256 1207q0 -117 51 -191.5t146 -74.5q90 0 141 75.5t51 186.5q0 116 -52 193t-144 77q-89 0 -141 -76.5t-52 -189.5z"/>
<glyph glyph-name="guillemotright" horiz-adv-x="1012" unicode="»" d="M915 554l-293 -405l-139 36l270 377l-265 373l137 35zM534 554l-304 -405l-128 36l259 377l-257 373l127 35z"/>
<glyph glyph-name="onequarter" horiz-adv-x="1609" unicode="¼" d="M1066 358h246q0 330 1 358zM1165 1547h135l-921 -1547h-134zM1420 40h-107v200h-390v99l379 560h120v-541h94l10 -118h-106v-200zM122 1334v102q94 48 149 103l97 -1v-792h124v-96h-357v96h118v663q-48 -32 -131 -75z"/>
<glyph glyph-name="onehalf" horiz-adv-x="1591" unicode="½" d="M135 650v96h118v663q-48 -32 -131 -75v102q94 48 149 103l97 -1v-792h124v-96h-357zM934 -30v93q223 224 284 292q149 172 152 262q0 65 -40 104t-97 39t-114 -31.5t-99 -94.5l-77 65q34 79 117 124t177 45q110 0 186 -61.5t76 -177.5q0 -36 -7 -70.5t-27 -72.5 t-35.5 -65.5t-53.5 -71t-57.5 -66t-71.5 -72t-72.5 -68t-81.5 -74.5h394v-99h-553zM245 0l920 1547h135l-921 -1547h-134z"/>
<glyph glyph-name="threequarters" horiz-adv-x="1630" unicode="¾" d="M333 631q-130 0 -217 104l52 103q77 -85 160 -85q65 0 110.5 41.5t45.5 108.5q0 143 -191 143h-49v128h44q174 0 174 129q0 61 -34 91t-91 30q-86 0 -171 -85l-50 103q42 50 101 80.5t121 30.5q100 0 181 -68.5t81 -179.5q0 -130 -113 -193q133 -63 133 -213 q0 -119 -86 -193.5t-201 -74.5zM1334 44v201h-392v98l379 560h121v-542h96l8 -116h-105v-201h-107zM331 0l918 1547h144l-928 -1547h-134zM1085 361h246q0 303 3 360z"/>
<glyph glyph-name="questiondown" horiz-adv-x="865" unicode="¿" d="M596 1094q0 -53 -35.5 -92.5t-97.5 -39.5q-63 0 -98 39t-35 93t35 93t98 39q62 0 97.5 -39.5t35.5 -92.5zM434 779h87q0 -64 -29.5 -147t-71.5 -162.5t-83.5 -157.5t-71 -154t-29.5 -130q1 -95 61 -141t164 -46q129 0 259 81l45 -135q-123 -97 -331 -97 q-162 0 -261.5 85.5t-99.5 238.5q0 77 22.5 150t62.5 142.5t83.5 135t98 157.5t94.5 180z"/>
<glyph glyph-name="Agrave" horiz-adv-x="1302" unicode="À" d="M595 1627l-323 387h250l185 -387h-112zM1121 0l-173 469h-590l-179 -469h-176l568 1482h177l551 -1482h-178zM892 614q-211 613 -233 689l-243 -689h476z"/>
<glyph glyph-name="Aacute" horiz-adv-x="1302" unicode="Á" d="M1033 2015l-325 -388h-114l186 388h253zM1121 0l-173 469h-590l-179 -469h-176l568 1482h177l551 -1482h-178zM892 614q-211 613 -233 689l-243 -689h476z"/>
<glyph glyph-name="Acircumflex" horiz-adv-x="1302" unicode="Â" d="M358 1627l187 388h213l187 -388h-134l-161 272l-161 -272h-131zM1121 0l-173 469h-590l-179 -469h-176l568 1482h177l551 -1482h-178zM892 614q-211 613 -233 689l-243 -689h476z"/>
<glyph glyph-name="Atilde" horiz-adv-x="1302" unicode="Ã" d="M369 1635l-82 55q35 98 82 139t107 41q45 0 106.5 -24t120.5 -48t100 -24q83 0 125 98l86 -36q-35 -116 -85.5 -162.5t-115.5 -46.5q-46 0 -108 23t-121.5 46.5t-98.5 23.5q-77 0 -116 -85zM1121 0l-173 469h-590l-179 -469h-176l568 1482h177l551 -1482h-178zM892 614 q-211 613 -233 689l-243 -689h476z"/>
<glyph glyph-name="Adieresis" horiz-adv-x="1302" unicode="Ä" d="M532 1627h-154v212h154v-212zM923 1627h-155v212h155v-212zM1121 0l-173 469h-590l-179 -469h-176l568 1482h177l551 -1482h-178zM892 614q-211 613 -233 689l-243 -689h476z"/>
<glyph glyph-name="Aring" horiz-adv-x="1302" unicode="Å" d="M401 1741q0 103 73.5 177t175.5 74q103 0 176.5 -74t73.5 -177q0 -102 -73 -177.5t-177 -75.5q-102 0 -175.5 74.5t-73.5 178.5zM500 1741q0 -65 44.5 -110.5t106.5 -45.5t106.5 46t44.5 110q0 65 -44.5 110t-106.5 45t-106.5 -45t-44.5 -110zM1121 0l-173 469h-590 l-179 -469h-176l568 1482h177l551 -1482h-178zM892 614q-211 613 -233 689l-243 -689h476z"/>
<glyph glyph-name="AE" horiz-adv-x="2092" unicode="Æ" d="M582 589h548l-61 820zM85 0l916 1568h945v-159h-705l39 -527h631v-158h-611l42 -566h624v-158h-783l-31 427h-654l-240 -427h-173z"/>
<glyph glyph-name="Ccedilla" horiz-adv-x="1290" unicode="Ç" d="M676 -434h-154l112 426h86zM823 1352q-167 0 -287.5 -81t-179.5 -218t-59 -315q0 -133 32 -242.5t96 -192t166.5 -128t235.5 -45.5q171 0 354 89l29 -147q-149 -94 -403 -94q-167 0 -299.5 55.5t-219 157t-131.5 242t-45 312.5q0 166 49 306t138.5 240.5t223.5 156.5 t298 56q249 0 420 -110l-68 -141q-164 99 -350 99z"/>
<glyph glyph-name="Egrave" horiz-adv-x="1143" unicode="È" d="M550 1627l-323 387h250l185 -387h-112zM174 0v1479h848l-7 -153h-668v-484h635v-151h-635v-538h690l-8 -153h-855z"/>
<glyph glyph-name="Eacute" horiz-adv-x="1143" unicode="É" d="M987 2015l-325 -388h-114l186 388h253zM174 0v1479h848l-7 -153h-668v-484h635v-151h-635v-538h690l-8 -153h-855z"/>
<glyph glyph-name="Ecircumflex" horiz-adv-x="1143" unicode="Ê" d="M312 1627l187 388h213l187 -388h-134l-161 272l-161 -272h-131zM174 0v1479h848l-7 -153h-668v-484h635v-151h-635v-538h690l-8 -153h-855z"/>
<glyph glyph-name="Edieresis" horiz-adv-x="1143" unicode="Ë" d="M487 1627h-154v212h154v-212zM878 1627h-155v212h155v-212zM174 0v1479h848l-7 -153h-668v-484h635v-151h-635v-538h690l-8 -153h-855z"/>
<glyph glyph-name="Igrave" horiz-adv-x="540" unicode="Ì" d="M212 1627l-323 387h250l185 -387h-112zM355 0h-173v1479h173v-1479z"/>
<glyph glyph-name="Iacute" horiz-adv-x="540" unicode="Í" d="M651 2015l-325 -388h-114l186 388h253zM355 0h-173v1479h173v-1479z"/>
<glyph glyph-name="Icircumflex" horiz-adv-x="540" unicode="Î" d="M-25 1627l187 388h213l187 -388h-134l-161 272l-161 -272h-131zM355 0h-173v1479h173v-1479z"/>
<glyph glyph-name="Idieresis" horiz-adv-x="540" unicode="Ï" d="M150 1627h-154v212h154v-212zM541 1627h-155v212h155v-212zM355 0h-173v1479h173v-1479z"/>
<glyph glyph-name="Eth" horiz-adv-x="1522" unicode="Ð" d="M324 155h315q279 0 431.5 146.5t152.5 432.5q0 139 -32.5 244t-89.5 173.5t-144 111.5t-188 60.5t-229 17.5h-216v-509h242v-135h-242v-542zM147 0v697h-118v135h118v664h372q161 0 292 -23t245 -78t191 -140.5t121 -216.5t44 -300q0 -183 -57 -324.5t-162 -231.5 t-249 -136t-323 -46h-474z"/>
<glyph glyph-name="Ntilde" horiz-adv-x="1516" unicode="Ñ" d="M477 1635l-82 55q35 98 82 139t107 41q45 0 106.5 -24t120.5 -48t100 -24q83 0 125 98l86 -36q-35 -116 -85.5 -162.5t-115.5 -46.5q-46 0 -108 23t-121.5 46.5t-98.5 23.5q-77 0 -116 -85zM1342 0h-196l-768 1164l-50 69q8 -210 8 -375v-858h-162v1479h193l770 -1164 l51 -69q-7 319 -7 369v864h161v-1479z"/>
<glyph glyph-name="Ograve" d="M757 1627l-323 387h250l185 -387h-112zM1514 739q0 -169 -46.5 -309t-134 -240.5t-220.5 -156t-299 -55.5q-224 0 -383.5 95.5t-239 266t-79.5 400.5q0 355 185 560t518 205q328 0 513.5 -206.5t185.5 -559.5zM296 739q0 -285 131 -447.5t387 -162.5t385.5 162t129.5 448 q0 292 -130.5 453t-383.5 161t-386 -161t-133 -453z" unicode="Ò"/>
<glyph glyph-name="Oacute" d="M1195 2015l-325 -388h-114l186 388h253zM1514 739q0 -169 -46.5 -309t-134 -240.5t-220.5 -156t-299 -55.5q-224 0 -383.5 95.5t-239 266t-79.5 400.5q0 355 185 560t518 205q328 0 513.5 -206.5t185.5 -559.5zM296 739q0 -285 131 -447.5t387 -162.5t385.5 162 t129.5 448q0 292 -130.5 453t-383.5 161t-386 -161t-133 -453z" unicode="Ó"/>
<glyph glyph-name="Ocircumflex" d="M520 1627l187 388h213l187 -388h-134l-161 272l-161 -272h-131zM1514 739q0 -169 -46.5 -309t-134 -240.5t-220.5 -156t-299 -55.5q-224 0 -383.5 95.5t-239 266t-79.5 400.5q0 355 185 560t518 205q328 0 513.5 -206.5t185.5 -559.5zM296 739q0 -285 131 -447.5 t387 -162.5t385.5 162t129.5 448q0 292 -130.5 453t-383.5 161t-386 -161t-133 -453z" unicode="Ô"/>
<glyph glyph-name="Otilde" d="M531 1635l-82 55q35 98 82 139t107 41q45 0 106.5 -24t120.5 -48t100 -24q83 0 125 98l86 -36q-35 -116 -85.5 -162.5t-115.5 -46.5q-46 0 -108 23t-121.5 46.5t-98.5 23.5q-77 0 -116 -85zM1514 739q0 -169 -46.5 -309t-134 -240.5t-220.5 -156t-299 -55.5 q-224 0 -383.5 95.5t-239 266t-79.5 400.5q0 355 185 560t518 205q328 0 513.5 -206.5t185.5 -559.5zM296 739q0 -285 131 -447.5t387 -162.5t385.5 162t129.5 448q0 292 -130.5 453t-383.5 161t-386 -161t-133 -453z" unicode="Õ"/>
<glyph glyph-name="Odieresis" d="M694 1627h-154v212h154v-212zM1085 1627h-155v212h155v-212zM1514 739q0 -169 -46.5 -309t-134 -240.5t-220.5 -156t-299 -55.5q-224 0 -383.5 95.5t-239 266t-79.5 400.5q0 355 185 560t518 205q328 0 513.5 -206.5t185.5 -559.5zM296 739q0 -285 131 -447.5t387 -162.5 t385.5 162t129.5 448q0 292 -130.5 453t-383.5 161t-386 -161t-133 -453z" unicode="Ö"/>
<glyph glyph-name="multiply" horiz-adv-x="993" unicode="×" d="M876 278l-108 -97l-272 313l-272 -313l-108 97l285 326l-285 328l106 95l274 -314l274 314l106 -95l-285 -328z"/>
<glyph glyph-name="Oslash" d="M1114 1270l-457 -1122q76 -19 157 -19q256 0 385.5 162t129.5 448q0 382 -215 531zM989 1329q-78 24 -174 24q-253 0 -386 -161t-133 -453q0 -191 60 -329.5t178 -210.5zM502 -232l-125 43l96 239q-176 86 -268.5 264.5t-92.5 425.5q0 355 185 560t518 205q125 0 232 -32 l89 220l131 -46l-92 -227q164 -90 251.5 -265.5t87.5 -415.5q0 -169 -46.5 -309t-134 -240.5t-220.5 -156t-299 -55.5q-115 0 -216 26z" unicode="Ø"/>
<glyph glyph-name="Ugrave" horiz-adv-x="1438" unicode="Ù" d="M660 1627l-323 387h250l185 -387h-112zM1277 1479v-960q0 -255 -139.5 -398t-424.5 -143t-421 143t-136 400v958h174v-961q0 -201 95 -296t294 -95q194 0 289.5 96t95.5 296v960h173z"/>
<glyph glyph-name="Uacute" horiz-adv-x="1438" unicode="Ú" d="M1099 2015l-325 -388h-114l186 388h253zM1277 1479v-960q0 -255 -139.5 -398t-424.5 -143t-421 143t-136 400v958h174v-961q0 -201 95 -296t294 -95q194 0 289.5 96t95.5 296v960h173z"/>
<glyph glyph-name="Ucircumflex" horiz-adv-x="1438" unicode="Û" d="M423 1627l187 388h213l187 -388h-134l-161 272l-161 -272h-131zM1277 1479v-960q0 -255 -139.5 -398t-424.5 -143t-421 143t-136 400v958h174v-961q0 -201 95 -296t294 -95q194 0 289.5 96t95.5 296v960h173z"/>
<glyph glyph-name="Udieresis" horiz-adv-x="1438" unicode="Ü" d="M598 1627h-154v212h154v-212zM989 1627h-155v212h155v-212zM1277 1479v-960q0 -255 -139.5 -398t-424.5 -143t-421 143t-136 400v958h174v-961q0 -201 95 -296t294 -95q194 0 289.5 96t95.5 296v960h173z"/>
<glyph glyph-name="Yacute" horiz-adv-x="1194" unicode="Ý" d="M979 2015l-325 -388h-114l186 388h253zM591 754l416 725h188l-522 -889v-590h-175v586l-499 893h187z"/>
<glyph glyph-name="Thorn" horiz-adv-x="1291" unicode="Þ" d="M147 0v1496h177v-279h324q281 0 421 -98.5t140 -327.5q0 -210 -120 -329.5t-370 -119.5l-395 7v-349h-177zM324 493h384q332 0 332 289q0 150 -85.5 218t-288.5 68h-342v-575z"/>
<glyph glyph-name="germandbls" horiz-adv-x="1222" unicode="ß" d="M771 148q97 0 151.5 52.5t54.5 142.5q0 50 -26 95.5t-74 83.5t-92 66.5t-105 63t-89 53.5q-82 56 -82 117q0 58 65 112q26 21 75 52.5t76.5 51.5t50.5 58t23 86q0 87 -67 139t-164 52q-282 0 -282 -317v-1056h-168v1046q0 229 112 354t338 125q190 0 305 -91.5 t115 -251.5q0 -40 -8 -73.5t-27 -62t-36.5 -49t-50.5 -44.5t-55 -38t-64 -39t-64 -38q38 -27 100 -64.5t109.5 -65.5t101.5 -68.5t89.5 -80t59 -94.5t23.5 -117q0 -93 -28.5 -161.5t-81 -108.5t-119.5 -59t-151 -19h-343l16 148h312z"/>
<glyph glyph-name="agrave" horiz-adv-x="1098" unicode="à" d="M468 1242l-323 387h250l185 -387h-112zM823 0q-15 64 -29 138q-91 -91 -171 -126t-188 -35q-154 0 -247.5 80.5t-93.5 231.5q0 168 127.5 249t367.5 101q33 3 99.5 8.5t99.5 8.5v97q0 116 -54 172t-170 56q-162 0 -327 -80q-5 12 -26 69.5t-22 59.5q73 41 173.5 65.5 t204.5 24.5q205 0 295.5 -89.5t90.5 -304.5v-726h-130zM460 112q119 0 209.5 65.5t116.5 176.5v185q-5 0 -60.5 -5t-72.5 -6q-217 -19 -302.5 -71t-85.5 -167q0 -88 52 -133t143 -45z"/>
<glyph glyph-name="aacute" horiz-adv-x="1098" unicode="á" d="M905 1630l-325 -388h-114l186 388h253zM823 0q-15 64 -29 138q-91 -91 -171 -126t-188 -35q-154 0 -247.5 80.5t-93.5 231.5q0 168 127.5 249t367.5 101q33 3 99.5 8.5t99.5 8.5v97q0 116 -54 172t-170 56q-162 0 -327 -80q-5 12 -26 69.5t-22 59.5q73 41 173.5 65.5 t204.5 24.5q205 0 295.5 -89.5t90.5 -304.5v-726h-130zM460 112q119 0 209.5 65.5t116.5 176.5v185q-5 0 -60.5 -5t-72.5 -6q-217 -19 -302.5 -71t-85.5 -167q0 -88 52 -133t143 -45z"/>
<glyph glyph-name="acircumflex" horiz-adv-x="1098" unicode="â" d="M230 1242l187 388h213l187 -388h-134l-161 272l-161 -272h-131zM823 0q-15 64 -29 138q-91 -91 -171 -126t-188 -35q-154 0 -247.5 80.5t-93.5 231.5q0 168 127.5 249t367.5 101q33 3 99.5 8.5t99.5 8.5v97q0 116 -54 172t-170 56q-162 0 -327 -80q-5 12 -26 69.5 t-22 59.5q73 41 173.5 65.5t204.5 24.5q205 0 295.5 -89.5t90.5 -304.5v-726h-130zM460 112q119 0 209.5 65.5t116.5 176.5v185q-5 0 -60.5 -5t-72.5 -6q-217 -19 -302.5 -71t-85.5 -167q0 -88 52 -133t143 -45z"/>
<glyph glyph-name="atilde" horiz-adv-x="1098" unicode="ã" d="M242 1250l-82 55q35 98 82 139t107 41q45 0 106.5 -24t120.5 -48t100 -24q83 0 125 98l86 -36q-35 -116 -85.5 -162.5t-115.5 -46.5q-46 0 -108 23t-121.5 46.5t-98.5 23.5q-77 0 -116 -85zM823 0q-15 64 -29 138q-91 -91 -171 -126t-188 -35q-154 0 -247.5 80.5 t-93.5 231.5q0 168 127.5 249t367.5 101q33 3 99.5 8.5t99.5 8.5v97q0 116 -54 172t-170 56q-162 0 -327 -80q-5 12 -26 69.5t-22 59.5q73 41 173.5 65.5t204.5 24.5q205 0 295.5 -89.5t90.5 -304.5v-726h-130zM460 112q119 0 209.5 65.5t116.5 176.5v185q-5 0 -60.5 -5 t-72.5 -6q-217 -19 -302.5 -71t-85.5 -167q0 -88 52 -133t143 -45z"/>
<glyph glyph-name="adieresis" horiz-adv-x="1098" unicode="ä" d="M405 1242h-154v212h154v-212zM796 1242h-155v212h155v-212zM823 0q-15 64 -29 138q-91 -91 -171 -126t-188 -35q-154 0 -247.5 80.5t-93.5 231.5q0 168 127.5 249t367.5 101q33 3 99.5 8.5t99.5 8.5v97q0 116 -54 172t-170 56q-162 0 -327 -80q-5 12 -26 69.5t-22 59.5 q73 41 173.5 65.5t204.5 24.5q205 0 295.5 -89.5t90.5 -304.5v-726h-130zM460 112q119 0 209.5 65.5t116.5 176.5v185q-5 0 -60.5 -5t-72.5 -6q-217 -19 -302.5 -71t-85.5 -167q0 -88 52 -133t143 -45z"/>
<glyph glyph-name="aring" horiz-adv-x="1098" unicode="å" d="M274 1495q0 103 73.5 177t175.5 74q103 0 176.5 -74t73.5 -177q0 -102 -73 -177.5t-177 -75.5q-102 0 -175.5 74.5t-73.5 178.5zM373 1495q0 -65 44.5 -110.5t106.5 -45.5t106.5 46t44.5 110q0 65 -44.5 110t-106.5 45t-106.5 -45t-44.5 -110zM823 0q-15 64 -29 138 q-91 -91 -171 -126t-188 -35q-154 0 -247.5 80.5t-93.5 231.5q0 168 127.5 249t367.5 101q33 3 99.5 8.5t99.5 8.5v97q0 116 -54 172t-170 56q-162 0 -327 -80q-5 12 -26 69.5t-22 59.5q73 41 173.5 65.5t204.5 24.5q205 0 295.5 -89.5t90.5 -304.5v-726h-130zM460 112 q119 0 209.5 65.5t116.5 176.5v185q-5 0 -60.5 -5t-72.5 -6q-217 -19 -302.5 -71t-85.5 -167q0 -88 52 -133t143 -45z"/>
<glyph glyph-name="ae" horiz-adv-x="1674" unicode="æ" d="M404 -26q-143 0 -233.5 78.5t-90.5 247.5q0 55 16.5 99.5t43 75t71 54t88 37.5t108 24t117 14.5t127.5 8.5l63 3v165q0 102 -43 148.5t-147 46.5q-98 0 -194 -23.5t-162 -58.5l-36 138q65 37 173.5 64.5t214.5 27.5q124 0 209.5 -49t107.5 -143q53 95 147.5 143.5 t207.5 48.5q99 0 173 -36.5t117 -99.5t63.5 -139.5t20.5 -164.5q0 -78 -36.5 -111t-150.5 -39l-497 -25q13 -187 86.5 -288.5t225.5 -101.5q88 0 174 33t149 77l52 -121q-154 -133 -386 -133q-202 0 -327 137q-95 -59 -218 -98.5t-234 -39.5zM416 113q32 0 67.5 5.5t81.5 18 t71.5 20.5t82 27.5t68.5 23.5q-67 122 -76 291q-44 -2 -64 -4q-158 -12 -246 -38t-120.5 -64.5t-32.5 -101.5q0 -178 168 -178zM888 615l516 29v10q-2 171 -53.5 250.5t-161.5 79.5q-143 0 -217.5 -101.5t-83.5 -267.5z"/>
<glyph glyph-name="ccedilla" horiz-adv-x="968" unicode="ç" d="M496 -435h-154l112 426h86zM607 -23q-242 0 -378.5 157t-136.5 411q1 256 139.5 415.5t379.5 159.5q85 0 164.5 -21t125.5 -55l-46 -130q-117 63 -247 63q-159 0 -251.5 -116t-92.5 -317q0 -196 91.5 -310.5t253.5 -114.5q129 0 264 70l21 -133q-109 -79 -287 -79z"/>
<glyph glyph-name="egrave" horiz-adv-x="1108" unicode="è" d="M500 1242l-323 387h250l185 -387h-112zM607 -23q-239 0 -376.5 152t-137.5 416q0 255 133 413.5t350 161.5q204 0 323.5 -139.5t119.5 -372.5q0 -12 -0.5 -44t-0.5 -46h-753q3 -187 96.5 -291.5t251.5 -104.5q174 0 349 92l26 -135q-167 -102 -381 -102zM574 982 q-128 0 -209 -90.5t-95 -247.5h579q0 163 -73.5 250.5t-201.5 87.5z"/>
<glyph glyph-name="eacute" horiz-adv-x="1108" unicode="é" d="M938 1630l-325 -388h-114l186 388h253zM607 -23q-239 0 -376.5 152t-137.5 416q0 255 133 413.5t350 161.5q204 0 323.5 -139.5t119.5 -372.5q0 -12 -0.5 -44t-0.5 -46h-753q3 -187 96.5 -291.5t251.5 -104.5q174 0 349 92l26 -135q-167 -102 -381 -102zM574 982 q-128 0 -209 -90.5t-95 -247.5h579q0 163 -73.5 250.5t-201.5 87.5z"/>
<glyph glyph-name="ecircumflex" horiz-adv-x="1108" unicode="ê" d="M262 1242l187 388h213l187 -388h-134l-161 272l-161 -272h-131zM607 -23q-239 0 -376.5 152t-137.5 416q0 255 133 413.5t350 161.5q204 0 323.5 -139.5t119.5 -372.5q0 -12 -0.5 -44t-0.5 -46h-753q3 -187 96.5 -291.5t251.5 -104.5q174 0 349 92l26 -135 q-167 -102 -381 -102zM574 982q-128 0 -209 -90.5t-95 -247.5h579q0 163 -73.5 250.5t-201.5 87.5z"/>
<glyph glyph-name="edieresis" horiz-adv-x="1108" unicode="ë" d="M438 1242h-154v212h154v-212zM829 1242h-155v212h155v-212zM607 -23q-239 0 -376.5 152t-137.5 416q0 255 133 413.5t350 161.5q204 0 323.5 -139.5t119.5 -372.5q0 -12 -0.5 -44t-0.5 -46h-753q3 -187 96.5 -291.5t251.5 -104.5q174 0 349 92l26 -135 q-167 -102 -381 -102zM574 982q-128 0 -209 -90.5t-95 -247.5h579q0 163 -73.5 250.5t-201.5 87.5z"/>
<glyph glyph-name="igrave" horiz-adv-x="430" unicode="ì" d="M164 1242l-323 387h250l185 -387h-112zM304 1098v-1098h-169v1098h169z"/>
<glyph glyph-name="iacute" horiz-adv-x="430" unicode="í" d="M601 1630l-325 -388h-114l186 388h253zM304 1098v-1098h-169v1098h169z"/>
<glyph glyph-name="icircumflex" horiz-adv-x="430" unicode="î" d="M-74 1242l187 388h213l187 -388h-134l-161 272l-161 -272h-131zM304 1098v-1098h-169v1098h169z"/>
<glyph glyph-name="idieresis" horiz-adv-x="430" unicode="ï" d="M101 1242h-154v212h154v-212zM492 1242h-155v212h155v-212zM304 1098v-1098h-169v1098h169z"/>
<glyph glyph-name="eth" horiz-adv-x="1204" unicode="ð" d="M569 972q146 0 275 -95q-83 158 -303 380l-272 -112l-43 132l220 87l-236 224h223l146 -159l289 113l46 -129l-242 -93q248 -270 343 -436q102 -192 102 -392q0 -111 -33 -204.5t-96 -163.5t-161.5 -109.5t-223.5 -39.5q-121 0 -220 41t-163 111.5t-98.5 162.5t-34.5 196 q0 219 132.5 352.5t349.5 133.5zM603 833q-154 0 -244 -100t-90 -248q0 -99 36.5 -181t115.5 -136t188 -54q157 0 246.5 101t89.5 257q0 69 -22.5 133t-64.5 115t-108.5 82t-146.5 31z"/>
<glyph glyph-name="ntilde" horiz-adv-x="1184" unicode="ñ" d="M315 1250l-82 55q35 98 82 139t107 41q45 0 106.5 -24t120.5 -48t100 -24q83 0 125 98l86 -36q-35 -116 -85.5 -162.5t-115.5 -46.5q-46 0 -108 23t-121.5 46.5t-98.5 23.5q-77 0 -116 -85zM143 0v1097h140l21 -157q65 81 162.5 130.5t210.5 49.5q190 0 281 -106.5 t91 -327.5v-686h-167q0 660 -1 707q-4 140 -56.5 205t-175.5 65q-129 0 -215 -62t-112 -161q-10 -67 -10 -154v-600h-169z"/>
<glyph glyph-name="ograve" horiz-adv-x="1201" unicode="ò" d="M544 1242l-323 387h250l185 -387h-112zM1108 549q0 -255 -136 -413.5t-376 -158.5q-231 0 -367.5 160t-136.5 411q0 256 137 414t376 158q235 0 369 -158.5t134 -412.5zM265 546q0 -195 86.5 -312.5t252.5 -117.5q164 0 247.5 117t83.5 315q0 201 -82.5 316.5 t-251.5 115.5q-164 0 -250 -118t-86 -316z"/>
<glyph glyph-name="oacute" horiz-adv-x="1201" unicode="ó" d="M982 1630l-325 -388h-114l186 388h253zM1108 549q0 -255 -136 -413.5t-376 -158.5q-231 0 -367.5 160t-136.5 411q0 256 137 414t376 158q235 0 369 -158.5t134 -412.5zM265 546q0 -195 86.5 -312.5t252.5 -117.5q164 0 247.5 117t83.5 315q0 201 -82.5 316.5 t-251.5 115.5q-164 0 -250 -118t-86 -316z"/>
<glyph glyph-name="ocircumflex" horiz-adv-x="1201" unicode="ô" d="M306 1242l187 388h213l187 -388h-134l-161 272l-161 -272h-131zM1108 549q0 -255 -136 -413.5t-376 -158.5q-231 0 -367.5 160t-136.5 411q0 256 137 414t376 158q235 0 369 -158.5t134 -412.5zM265 546q0 -195 86.5 -312.5t252.5 -117.5q164 0 247.5 117t83.5 315 q0 201 -82.5 316.5t-251.5 115.5q-164 0 -250 -118t-86 -316z"/>
<glyph glyph-name="otilde" horiz-adv-x="1201" unicode="õ" d="M319 1250l-82 55q35 98 82 139t107 41q45 0 106.5 -24t120.5 -48t100 -24q83 0 125 98l86 -36q-35 -116 -85.5 -162.5t-115.5 -46.5q-46 0 -108 23t-121.5 46.5t-98.5 23.5q-77 0 -116 -85zM1108 549q0 -255 -136 -413.5t-376 -158.5q-231 0 -367.5 160t-136.5 411 q0 256 137 414t376 158q235 0 369 -158.5t134 -412.5zM265 546q0 -195 86.5 -312.5t252.5 -117.5q164 0 247.5 117t83.5 315q0 201 -82.5 316.5t-251.5 115.5q-164 0 -250 -118t-86 -316z"/>
<glyph glyph-name="odieresis" horiz-adv-x="1201" unicode="ö" d="M482 1242h-154v212h154v-212zM873 1242h-155v212h155v-212zM1108 549q0 -255 -136 -413.5t-376 -158.5q-231 0 -367.5 160t-136.5 411q0 256 137 414t376 158q235 0 369 -158.5t134 -412.5zM265 546q0 -195 86.5 -312.5t252.5 -117.5q164 0 247.5 117t83.5 315 q0 201 -82.5 316.5t-251.5 115.5q-164 0 -250 -118t-86 -316z"/>
<glyph glyph-name="divide" horiz-adv-x="1211" unicode="÷" d="M682 249v-227h-191v227h191zM716 1166v-227h-225v227h225zM1098 523h-1001v149h1001v-149z"/>
<glyph glyph-name="oslash" horiz-adv-x="1200" unicode="ø" d="M807 913l-344 -769q62 -28 141 -28q164 0 247.5 117t83.5 315q0 257 -128 365zM736 955q-61 25 -135 25q-164 0 -250 -118t-86 -316q0 -247 129 -358zM294 -235l-71 38l109 245q-115 71 -177.5 202t-62.5 298q0 256 137 414t376 158q102 0 190 -33l107 240l77 -31 l-110 -245q115 -70 177 -201.5t62 -300.5q0 -255 -136 -413.5t-376 -158.5q-105 0 -192 35z"/>
<glyph glyph-name="ugrave" horiz-adv-x="1100" unicode="ù" d="M494 1242l-323 387h250l185 -387h-112zM105 366v731h168v-733q0 -72 20.5 -122t59 -77.5t87 -39.5t111.5 -12q130 0 202.5 57t72.5 194v733h168v-731q0 -84 -24 -151t-64.5 -111.5t-97.5 -73.5t-120.5 -42t-136.5 -13q-72 0 -136 13t-121.5 42.5t-99 74t-65.5 111.5 t-24 150z"/>
<glyph glyph-name="uacute" horiz-adv-x="1100" unicode="ú" d="M931 1630l-325 -388h-114l186 388h253zM105 366v731h168v-733q0 -72 20.5 -122t59 -77.5t87 -39.5t111.5 -12q130 0 202.5 57t72.5 194v733h168v-731q0 -84 -24 -151t-64.5 -111.5t-97.5 -73.5t-120.5 -42t-136.5 -13q-72 0 -136 13t-121.5 42.5t-99 74t-65.5 111.5 t-24 150z"/>
<glyph glyph-name="ucircumflex" horiz-adv-x="1100" unicode="û" d="M256 1242l187 388h213l187 -388h-134l-161 272l-161 -272h-131zM105 366v731h168v-733q0 -72 20.5 -122t59 -77.5t87 -39.5t111.5 -12q130 0 202.5 57t72.5 194v733h168v-731q0 -84 -24 -151t-64.5 -111.5t-97.5 -73.5t-120.5 -42t-136.5 -13q-72 0 -136 13t-121.5 42.5 t-99 74t-65.5 111.5t-24 150z"/>
<glyph glyph-name="udieresis" horiz-adv-x="1100" unicode="ü" d="M431 1242h-154v212h154v-212zM822 1242h-155v212h155v-212zM105 366v731h168v-733q0 -72 20.5 -122t59 -77.5t87 -39.5t111.5 -12q130 0 202.5 57t72.5 194v733h168v-731q0 -84 -24 -151t-64.5 -111.5t-97.5 -73.5t-120.5 -42t-136.5 -13q-72 0 -136 13t-121.5 42.5 t-99 74t-65.5 111.5t-24 150z"/>
<glyph glyph-name="yacute" horiz-adv-x="1022" unicode="ý" d="M889 1630l-325 -388h-114l186 388h253zM3 1097h177l346 -913l308 913h177q-444 -1222 -459 -1260q-69 -173 -167 -253.5t-258 -80.5q-48 0 -101 8l-10 142q56 -4 84 -4q113 0 171.5 41.5t104.5 155.5q41 105 61 162z"/>
<glyph glyph-name="thorn" horiz-adv-x="1205" unicode="þ" d="M624 113q67 0 121 27.5t87 71.5t55 103t30.5 117t8.5 119q0 78 -14.5 150t-46.5 138.5t-92 106.5t-142 40q-109 0 -188 -61.5t-116 -158.5t-37 -215q0 -90 19 -166.5t58 -138.5t104.5 -97.5t152.5 -35.5zM292 162v-621h-168v1672v297h168v-577q129 191 351 191 q135 -1 239.5 -75.5t160.5 -202t56 -286.5q0 -89 -17.5 -173t-54.5 -159t-90 -131t-128.5 -89t-165.5 -33q-241 0 -351 187z"/>
<glyph glyph-name="dotlessi" horiz-adv-x="430" unicode="ı" d="M304 1098v-1098h-169v1098h169z"/>
<glyph glyph-name="OE" horiz-adv-x="1980" unicode="Œ" d="M1148 1259q-139 114 -333 114q-238 0 -378 -166.5t-146 -433.5q0 -110 17.5 -203.5t57.5 -175t101 -139.5t152 -91.5t205 -34.5q86 0 180 31.5t144 61.5v1037zM800 1524q108 0 199 -30t149 -81v82h726l-17 -154h-532v-496h496v-153h-496v-536h573l-15 -156h-735v82 q-34 -36 -137 -70.5t-188 -34.5q-233 0 -397 101t-244.5 278t-80.5 415q5 216 95 387.5t248 268.5t356 97z"/>
<glyph glyph-name="oe" horiz-adv-x="1916" unicode="œ" d="M587 -25q-161 0 -277 78t-172 205.5t-56 288.5q0 119 33.5 223t95.5 183t160 125t219 46q146 0 250.5 -62t164.5 -173q61 106 170 168.5t239 66.5q202 0 311 -141.5t109 -388.5q0 -8 -1 -36.5t-1 -38.5h-739q0 -182 95 -291t242 -109q105 0 183.5 30t152.5 80l52 -122 q-154 -132 -393 -132q-144 0 -253 61t-172 175q-63 -110 -167.5 -173t-245.5 -63zM590 113q86 0 151.5 36t103.5 97.5t57 137.5t19 163q0 91 -18 167.5t-56 139t-104.5 97.5t-155.5 35q-69 0 -125 -24.5t-94 -66.5t-64 -99t-37.5 -120t-11.5 -132q0 -86 19 -161t58 -137 t105 -97.5t153 -35.5zM1099 634h573v13q-3 166 -74.5 253.5t-193.5 87.5q-125 0 -208 -96t-97 -258z"/>
<glyph glyph-name="Scaron" horiz-adv-x="1227" unicode="Š" d="M326 2035h131l161 -312l161 312h134l-187 -388h-213zM146 244q231 -114 495 -114q325 0 325 296q0 96 -51.5 155.5t-187.5 93.5l-294 74q-337 85 -337 360q0 211 145 313.5t401 102.5q134 0 251 -29t196 -78l-50 -141q-67 37 -177.5 66t-223.5 29q-362 0 -362 -251 q0 -85 55.5 -136.5t166.5 -78.5l281 -68q180 -43 273 -137.5t93 -268.5q0 -226 -138.5 -340.5t-376.5 -114.5q-178 0 -316.5 36.5t-219.5 86.5z"/>
<glyph glyph-name="scaron" horiz-adv-x="953" unicode="š" d="M192 1630h131l161 -312l161 312h134l-187 -388h-213zM470 -23q-112 0 -206.5 24t-153.5 62l21 141q167 -89 328 -89q244 0 251 172q0 73 -52 115t-204 94l-83 29q-144 48 -205.5 119t-62.5 177q0 129 103.5 214t283.5 85q186 0 339 -72l-49 -128q-155 64 -290 64 q-105 0 -164.5 -41.5t-59.5 -116.5q0 -64 43 -98t172 -78q33 -12 83 -28q166 -54 235 -127.5t69 -198.5q-2 -152 -109 -235.5t-289 -83.5z"/>
<glyph glyph-name="Ydieresis" horiz-adv-x="1194" unicode="Ÿ" d="M478 1627h-154v212h154v-212zM869 1627h-155v212h155v-212zM591 754l416 725h188l-522 -889v-590h-175v586l-499 893h187z"/>
<glyph glyph-name="circumflex" horiz-adv-x="800" unicode="ˆ" d="M108 1251l187 388h213l187 -388h-134l-161 272l-161 -272h-131z"/>
<glyph glyph-name="caron" horiz-adv-x="800" unicode="ˇ" d="M108 1639h131l161 -312l161 312h134l-187 -388h-213z"/>
<glyph glyph-name="ring" horiz-adv-x="433" unicode="˚" d="M-33 418q0 103 73.5 177t175.5 74q103 0 176.5 -74t73.5 -177q0 -102 -73 -177.5t-177 -75.5q-102 0 -175.5 74.5t-73.5 178.5zM66 418q0 -65 44.5 -110.5t106.5 -45.5t106.5 46t44.5 110q0 65 -44.5 110t-106.5 45t-106.5 -45t-44.5 -110z"/>
<glyph glyph-name="tilde" horiz-adv-x="1257" unicode="˜" d="M347 122l-82 55q35 98 82 139t107 41q45 0 106.5 -24t120.5 -48t100 -24q83 0 125 98l86 -36q-35 -116 -85.5 -162.5t-115.5 -46.5q-46 0 -108 23t-121.5 46.5t-98.5 23.5q-77 0 -116 -85z"/>
<glyph glyph-name="pi" horiz-adv-x="1456" unicode="π" d="M1296 1120v-144h-182v-664q0 -25 1 -41t5.5 -40t13.5 -38t26 -24.5t42 -10.5t76 14v-166q-79 -14 -118 -14q-103 0 -143.5 70t-40.5 239v675h-406q-31 -800 -124 -976h-148q103 221 122 976q-152 -4 -244 -65l-16 142q42 40 112.5 53.5t197.5 13.5h826z"/>
<glyph glyph-name="endash" horiz-adv-x="1317" unicode="–" d="M1186 675v-148h-1047v148h1047z"/>
<glyph glyph-name="emdash" horiz-adv-x="2427" unicode="—" d="M2296 675v-148h-2157v148h2157z"/>
<glyph glyph-name="quoteleft" horiz-adv-x="510" unicode="‘" d="M129 1102l136 472h117l-91 -472h-162z"/>
<glyph glyph-name="quotesinglbase" horiz-adv-x="504" unicode="‚" d="M126 -256l92 472h161l-134 -472h-119z"/>
<glyph glyph-name="quotedblleft" horiz-adv-x="818" unicode="“" d="M129 1102l134 472h120l-94 -472h-160zM438 1102l135 472h117l-90 -472h-162z"/>
<glyph glyph-name="quotedblright" horiz-adv-x="795" unicode="”" d="M420 1102l91 472h163l-137 -472h-117zM133 1102l93 472h159l-135 -472h-117z"/>
<glyph glyph-name="dagger" horiz-adv-x="876" unicode="†" d="M369 121v926h-298v102h298v412h130v-412h307v-102h-307v-926h-130z"/>
<glyph glyph-name="daggerdbl" horiz-adv-x="950" unicode="‡" d="M413 110v357h-306v137h306v455h-301v140h301v351h130v-351h307v-140h-307v-455h300v-137h-300v-357h-130z"/>
<glyph glyph-name="ellipsis" horiz-adv-x="1482" unicode="…" d="M1249 -12q-62 0 -97.5 39.5t-35.5 92.5q0 54 35 93t98 39t98 -39t35 -93t-35 -93t-98 -39zM755 -12q-62 0 -97.5 39.5t-35.5 92.5q0 54 35 93t98 39t98 -39t35 -93t-35 -93t-98 -39zM261 -12q-62 0 -97.5 39.5t-35.5 92.5q0 54 35 93t98 39t98 -39t35 -93t-35 -93 t-98 -39z"/>
<glyph glyph-name="perthousand" horiz-adv-x="2303" unicode="‰" d="M1879 610q-97 0 -149.5 -72.5t-52.5 -183.5q0 -116 52.5 -188.5t151.5 -72.5q95 0 147.5 75t52.5 186q0 112 -53 184t-149 72zM1876 -30q-159 0 -242.5 103t-83.5 281q0 171 85 276t246 105q162 0 244 -101t82 -282q0 -169 -85.5 -275.5t-245.5 -106.5zM404 796 q-140 0 -218 104t-78 280q0 169 78.5 274t219.5 105q143 0 219.5 -102t76.5 -281q0 -167 -80 -273.5t-218 -106.5zM1104 -30q-161 0 -244 103t-83 281q0 171 84 276t246 105q163 0 245 -101.5t82 -281.5q0 -169 -85 -275.5t-245 -106.5zM1105 610q-95 0 -146 -72.5 t-51 -183.5q0 -115 51.5 -188t147.5 -73q95 0 146.5 75.5t51.5 185.5q0 115 -50.5 185.5t-149.5 70.5zM404 1438q-81 0 -124 -73.5t-43 -184.5q0 -116 43.5 -188.5t127.5 -72.5q80 0 123 74t43 185q0 116 -43.5 188t-126.5 72zM395 -22h-136l856 1569h157z"/>
<glyph glyph-name="guilsinglleft" horiz-adv-x="620" unicode="‹" d="M361 982h140l-232 -399l226 -401h-139l-236 401z"/>
<glyph glyph-name="guilsinglright" horiz-adv-x="617" unicode="›" d="M505 585l-241 -403h-140l231 403l-225 397h139z"/>
<glyph glyph-name="fraction" horiz-adv-x="1135" unicode="⁄" d="M936 1547h130l-875 -1547h-131z"/>
<glyph glyph-name="Euro" horiz-adv-x="1210" unicode="€" d="M106 580l17 103h92q-2 32 -2 48q0 21 5 114h-113l19 112h110q19 126 63.5 228.5t113 179t167 118t218.5 41.5q181 0 292 -95l-1 -180q-110 120 -269 120q-165 0 -263 -109.5t-130 -302.5h558l-17 -112h-559q-2 -21 -3 -62t-1 -70.5t-1 -29.5h549l-10 -103h-522 q11 -91 39 -169t73 -141t114 -99t155 -36q148 0 288 109l-1 -175q-125 -91 -306 -91q-101 0 -187 35t-146.5 92.5t-107 136.5t-73.5 162.5t-40 175.5h-121z"/>
<glyph glyph-name="trademark" horiz-adv-x="1812" unicode="™" d="M90 1496h637v-102h-264v-785h-114v785h-259v102zM849 1496h157l268 -672l281 672h149v-887h-114v740l-280 -669h-86l-264 669v-740h-111v887z"/>
<glyph glyph-name="partialdiff" horiz-adv-x="1208" unicode="∂" d="M511 119q105 0 190 80t136 211t67 295q-28 98 -99.5 164t-173.5 66t-187.5 -66.5t-134 -178t-48.5 -240.5q0 -150 68 -240.5t182 -90.5zM301 1405l-13 148q146 99 321 99q460 0 460 -735q0 -143 -20 -276.5t-63.5 -256t-107.5 -213.5t-158.5 -145t-209.5 -54 q-101 0 -178 36.5t-124.5 102.5t-71 152t-23.5 189q0 175 62.5 318t175.5 225t255 82q205 0 311 -176q0 8 0.5 36t0.5 43q0 247 -86 387t-247 140q-138 0 -284 -102z"/>
<glyph glyph-name="product" horiz-adv-x="1463" unicode="∏" d="M1139 1342h-815v-1342h-177v1496h1169v-1496h-177v1342z"/>
<glyph glyph-name="summation" horiz-adv-x="1286" unicode="∑" d="M1203 -195v-161h-1121v99l620 853l-598 834v102h1059v-153h-846l596 -775l-621 -799h911z"/>
<glyph glyph-name="radical" horiz-adv-x="1216" unicode="√" d="M1035 1718h113l-440 -1884h-139l-333 909l-152 -31l-16 121l260 56l241 -659l59 -186q135 558 407 1674z"/>
<glyph glyph-name="infinity" horiz-adv-x="1811" unicode="∞" d="M1555 665q0 95 -66.5 161.5t-167.5 66.5q-95 0 -178 -69.5t-161 -185.5q99 -135 176 -196t168 -61q112 0 170.5 79.5t58.5 204.5zM248 638q0 -102 70 -179.5t177 -77.5q171 0 343 255q-163 257 -351 257q-108 0 -173.5 -74t-65.5 -181zM1678 642q0 -170 -102 -279 t-253 -109q-112 0 -211 66t-203 205q-99 -130 -199 -200.5t-217 -70.5q-110 0 -192.5 56t-124 147t-41.5 202q0 149 102.5 253.5t250.5 104.5q121 0 221 -69.5t200 -202.5q95 131 194.5 201.5t222.5 70.5q167 0 259.5 -103.5t92.5 -271.5z"/>
<glyph glyph-name="approxequal" horiz-adv-x="1314" unicode="≈" d="M239 684l-103 28q24 130 99 203t192 73q61 0 121.5 -23.5t140.5 -71.5q73 -44 119.5 -63.5t87.5 -19.5q64 0 107.5 44.5t73.5 133.5l99 -29q-53 -275 -284 -275q-63 0 -127.5 24.5t-151.5 78.5q-115 73 -189 73q-138 0 -185 -176zM239 280l-101 32q25 132 99 204.5 t191 72.5q62 0 123 -23.5t136 -65.5q9 -5 32.5 -18.5t34 -19t30 -16t31.5 -15t28 -10t29 -8t26 -2.5q64 0 107.5 45t74.5 133l98 -31q-26 -132 -93 -204t-190 -72q-109 0 -280 103q-117 74 -188 74q-135 0 -188 -179z"/>
<glyph glyph-name="notequal" horiz-adv-x="1191" unicode="≠" d="M798 1207l115 -16l-117 -276h278l9 -132h-346l-156 -304h495l7 -127h-562l-145 -304l-113 20l119 284h-261l-7 127h332l152 304h-477l-9 132h545z"/>
<glyph glyph-name="lessequal" horiz-adv-x="1183" unicode="≤" d="M1066 141v-133h-965v133h965zM1041 383v-151l-910 484v90l910 506v-150l-756 -396z"/>
<glyph glyph-name="greaterequal" horiz-adv-x="1183" unicode="≥" d="M150 1164v150l913 -508v-87l-917 -485v151l762 377zM1080 141v-133h-960v133h960z"/>
<glyph glyph-name="lozenge" horiz-adv-x="1142" unicode="◊" d="M630 1583l425 -815l-434 -816h-109l-425 814l432 817h111zM565 106q60 110 179.5 330t178.5 330q-14 26 -146.5 276.5t-199.5 381.5q-120 -218 -358 -656q33 -63 155 -299.5t191 -362.5z"/>
</font>
</defs>
</svg>
